<?xml version="1.0" encoding="utf-8"?>
<!-- Svg Vector Icons : http://www.onlinewebfonts.com/icon -->
<!DOCTYPE svg PUBLIC "-//W3C//DTD SVG 1.1//EN" "http://www.w3.org/Graphics/SVG/1.1/DTD/svg11.dtd">
<svg version="1.1" xmlns="http://www.w3.org/2000/svg" xmlns:xlink="http://www.w3.org/1999/xlink" x="0px" y="0px" viewBox="0 0 1000 1000" enable-background="new 0 0 1000 1000" xml:space="preserve">
<metadata> Svg Vector Icons : http://www.onlinewebfonts.com/icon </metadata>
<g><path d="M783.2,163c8.4,0,21.9,4.2,35,8.2c16.4,5.1,33.3,10.2,48,10.2c51.6,0,86.2-34.5,86.2-85.7c0-48.9-37.1-85.7-86.2-85.7c-28.9,0-116.8,0-166,64c-8.7,11.3-15.3,23.6-20.2,36.8c-0.2-8.3-6.9-14.9-15.3-14.9c-8.5,0-15.3,6.9-15.3,15.3v79.1h-79.2V74.6c0-8.5-6.9-15.3-15.3-15.3c-8.5,0-15.3,6.9-15.3,15.3v115.7h-79.3V74.6c0-8.5-6.9-15.3-15.3-15.3s-15.3,6.9-15.3,15.3v115.7h-79.2v-79.1c0-8.5-6.9-15.3-15.3-15.3c-8.3,0-15,6.6-15.3,14.9c-4.9-13.1-11.5-25.5-20.2-36.8c-49.2-64-137.1-64-166-64c-49.2,0-86.2,36.8-86.2,85.7c0,51.3,34.7,85.7,86.2,85.7c14.8,0,31.7-5.2,48.1-10.2c13.1-4,26.6-8.2,35-8.2c1.6,0,2.5,0.2,2.8,0.1c0.7,2.5,2.5,15.5-17.9,60.6c-7.7,17.1-18,36.8-29.2,58.2c-38.5,73.9-86.4,165.8-86.4,253.3c0,142,57.2,251.3,162.7,314.3h-5.3c-28.6,0-47.2,38-50.6,45.7c-0.9,2-1.3,4.1-1.3,6.3v73.3c0,8.5,6.9,15.3,15.3,15.3h586c8.5,0,15.3-6.9,15.3-15.3v-73.3c0-28.7-23.3-51.9-51.9-51.9h-5.3c105.4-63,162.6-172.3,162.6-314.3c0-87.5-47.9-179.4-86.3-253.2c-11.1-21.5-21.4-41.1-29.2-58.3c-22.3-49.4-18-60.3-18.5-60.3C779.9,163.3,780.9,163,783.2,163z M746,535.2c0,71.4-22.2,124.4-65.8,159.3V230.1c3.7,13.3,8.9,29.8,15,48.9C729.3,386.5,746,470.3,746,535.2z M649.5,220.9v493.5c-22.4,11.5-49,19.4-79.2,24.2V220.9H649.5z M539.6,220.9v521.2c-12.7,1-25.8,1.7-39.6,1.7s-26.9-0.7-39.6-1.7V220.9H539.6z M429.7,220.9v517.6c-30.2-4.8-56.8-12.7-79.2-24.2V220.9H429.7z M304.9,279c6.1-19.1,11.3-35.7,15-48.9v464.4c-43.7-34.9-65.8-87.9-65.8-159.3C254.1,470.4,270.7,386.5,304.9,279z M770.3,236.3c8,17.6,18.5,37.9,30,59.9c36.9,70.9,82.9,159.1,82.9,239.1c0,156.3-70.9,265.4-204.9,315.3c-7,2.6-11,9.8-9.7,17.1c1.3,7.3,7.7,12.6,15.1,12.6h72.9c11.8,0,21.3,9.6,21.3,21.3v57.9H222.3v-54.5c6.5-12.9,16.6-24.8,21.3-24.8h72.9c7.4,0,13.8-5.3,15.1-12.6c1.3-7.3-2.8-14.5-9.7-17.1c-134.1-49.9-205-158.9-205-315.3c0-80,46-168.3,82.9-239.2c11.5-22,22-42.2,29.9-59.8c21.3-47.2,25.9-74.2,15.5-90.2c-4-6.2-12.3-13.7-28.4-13.7c-13,0-28.1,4.6-44,9.6c-14.2,4.3-28.9,8.9-39,8.9c-34.3,0-55.6-21.1-55.6-55.1c0-31.9,23.4-55.1,55.6-55.1c27.8,0,101.8,0,141.8,52.1c24.9,32.3,30,75.6,15.1,128.5c-3.6,13-8.8,29.5-14.9,48.5c-35.2,110.6-52.3,197.4-52.3,265.5c0,197.7,150.4,239.3,276.6,239.3S776.6,733,776.6,535.2c0-68.1-17.1-155-52.3-265.5c-6.1-19-11.3-35.5-14.9-48.5c-14.8-53-9.7-96.2,15.1-128.5c40-52.1,113.9-52.1,141.8-52.1c32.2,0,55.6,23.2,55.6,55.1c0,34-21.3,55.1-55.6,55.1c-10.2,0-24.8-4.5-39-8.9c-16-4.9-31-9.6-44-9.6c-16.2,0-24.4,7.4-28.4,13.7C744.4,162.1,749,189.1,770.3,236.3z" fill="#333333"/></g>
</svg>